<svg width="49" height="24" viewBox="0 0 49 24" fill="none" xmlns="http://www.w3.org/2000/svg">
<rect width="49" height="24" fill="white" fill-opacity="0.39"/>
<path d="M4.3 16.7C3.15384 14.8199 2.73672 12.5847 3.12759 10.4178C3.51846 8.25075 4.6902 6.30224 6.42102 4.94103C8.15184 3.57981 10.3216 2.90035 12.5197 3.03126C14.7178 3.16217 16.7916 4.09436 18.3486 5.65138C19.9056 7.2084 20.8378 9.28222 20.9687 11.4803C21.0996 13.6784 20.4202 15.8482 19.059 17.579C17.6978 19.3098 15.7492 20.4815 13.5822 20.8724C11.4153 21.2633 9.18015 20.8462 7.3 19.7L3 21L4.3 16.7Z" stroke="white" stroke-width="2" stroke-linecap="round" stroke-linejoin="round"/>
<path d="M44.5 12.572L37 20L29.5 12.572C29.0053 12.0906 28.6156 11.512 28.3555 10.8726C28.0955 10.2333 27.9706 9.54695 27.9887 8.85693C28.0069 8.16692 28.1678 7.48814 28.4612 6.86334C28.7546 6.23854 29.1741 5.68125 29.6935 5.22658C30.2128 4.77191 30.8207 4.42969 31.4788 4.22148C32.1369 4.01327 32.831 3.94358 33.5174 4.0168C34.2037 4.09002 34.8675 4.30456 35.4669 4.64691C36.0663 4.98926 36.5882 5.452 37 6.006C37.4135 5.45602 37.9361 4.99732 38.5351 4.65861C39.1341 4.31989 39.7965 4.10845 40.4809 4.03752C41.1654 3.96659 41.8571 4.0377 42.5128 4.24639C43.1685 4.45509 43.774 4.79687 44.2916 5.25036C44.8091 5.70385 45.2274 6.25928 45.5204 6.88189C45.8134 7.5045 45.9747 8.18088 45.9943 8.86871C46.0139 9.55653 45.8913 10.241 45.6341 10.8793C45.377 11.5175 44.9909 12.0958 44.5 12.578" stroke="white" stroke-width="2" stroke-linecap="round" stroke-linejoin="round"/>
</svg>
