<svg width="21" height="19" viewBox="0 0 21 19" fill="none" xmlns="http://www.w3.org/2000/svg">
<path d="M18.5 10.572L11 18L3.5 10.572C3.00531 10.0906 2.61564 9.51201 2.35555 8.87264C2.09545 8.23326 1.97056 7.54695 1.98874 6.85693C2.00691 6.16692 2.16776 5.48814 2.46116 4.86334C2.75455 4.23854 3.17414 3.68125 3.69349 3.22658C4.21284 2.77191 4.82071 2.42969 5.47881 2.22148C6.13692 2.01327 6.83101 1.94358 7.51737 2.0168C8.20373 2.09002 8.8675 2.30456 9.46688 2.64691C10.0663 2.98926 10.5882 3.452 11 4.006C11.4135 3.45602 11.9361 2.99732 12.5351 2.65861C13.1341 2.31989 13.7965 2.10845 14.4809 2.03752C15.1654 1.96659 15.8571 2.0377 16.5128 2.24639C17.1685 2.45509 17.774 2.79687 18.2916 3.25036C18.8091 3.70385 19.2274 4.25928 19.5204 4.88189C19.8134 5.5045 19.9747 6.18088 19.9943 6.86871C20.0139 7.55653 19.8913 8.24099 19.6341 8.87925C19.377 9.51751 18.9909 10.0958 18.5 10.578" stroke="black" stroke-width="2" stroke-linecap="round" stroke-linejoin="round"/>
</svg>
