<svg width="14" height="14" viewBox="0 0 14 14" fill="none" xmlns="http://www.w3.org/2000/svg">
<path d="M14 2.5C14 1.83696 13.7366 1.20107 13.2678 0.732233C12.7989 0.263392 12.163 0 11.5 0H2.5C1.83696 0 1.20107 0.263392 0.732233 0.732233C0.263392 1.20107 0 1.83696 0 2.5V11.5C0 12.163 0.263392 12.7989 0.732233 13.2678C1.20107 13.7366 1.83696 14 2.5 14H11.5C12.163 14 12.7989 13.7366 13.2678 13.2678C13.7366 12.7989 14 12.163 14 11.5V2.5ZM1 11.5V10H4V13H2.5L2.356 12.993C1.98484 12.9572 1.64032 12.7844 1.38962 12.5084C1.13892 12.2324 1.00002 11.8729 1 11.5ZM9 10V13H5V10H9ZM11.5 13H10V10H13V11.5L12.993 11.645C12.957 12.016 12.7841 12.3603 12.5081 12.6108C12.2321 12.8612 11.8727 13 11.5 13ZM9 5V9H5V5H9ZM10 5H13V9H10V5ZM9 1V4H5V1H9ZM10 1H11.5L11.645 1.007C12.016 1.04303 12.3603 1.21589 12.6108 1.49189C12.8612 1.7679 13 2.12727 13 2.5V4H10V1ZM4 1V4H1V2.5L1.007 2.356C1.0428 1.98484 1.21555 1.64032 1.49158 1.38962C1.76761 1.13892 2.12712 1.00002 2.5 1H4ZM4 5V9H1V5H4Z" fill="white"/>
</svg>
